<svg width="36" height="36" viewBox="0 0 36 36" fill="none" xmlns="http://www.w3.org/2000/svg">
<path d="M0 18C0 8.07158 8.07158 0 18 0C27.9284 0 36 8.07158 36 18C36 27.9284 27.9284 36 18 36C8.07158 36 0 27.9284 0 18Z" fill="white"/>
<path d="M22.1446 30.0654C23.3412 30.0654 24.2387 29.9161 24.837 29.4682C28.1278 24.8395 24.3883 12.1479 24.3883 12.1479L19.153 9.9082L12.7211 13.9396L12.2723 22.4505C12.1228 24.6902 13.3194 26.9299 15.2639 28.2737C17.358 29.4682 19.7513 30.0654 22.1446 30.0654Z" fill="#F8B68F"/>
<path d="M14.5146 18.7166C14.8137 17.2235 13.9163 13.9386 15.4121 14.2373C16.4591 14.3866 20.049 14.5359 21.3952 14.5359C24.2372 14.5359 29.4725 13.3414 29.4725 9.01131C29.4725 6.77162 28.1263 5.72643 26.7801 5.12918C25.4339 4.53193 23.9381 6.17437 22.5919 6.62231C19.4507 7.81681 12.7196 8.71269 11.0743 8.26475C9.12973 7.81681 7.18519 9.75787 7.03561 10.9524C6.73646 13.4907 8.38183 17.3728 9.72804 19.9111C10.4759 21.4043 11.523 22.5988 12.5701 23.644L14.5146 18.7166Z" fill="#273F52"/>
<path d="M10.7738 19.015C11.3721 18.4178 12.5687 18.5671 13.4662 19.3136C14.3637 20.0602 14.5133 21.1054 13.7654 21.7026C13.1671 22.2999 11.9704 22.1506 11.0729 21.404C10.1755 20.6575 10.0259 19.6123 10.7738 19.015Z" fill="#F8B68F"/>
</svg>
