<svg width="41" height="40" viewBox="0 0 41 40" fill="none" xmlns="http://www.w3.org/2000/svg">
<circle cx="20.1689" cy="20" r="20" fill="#D9DFE2"/>
<path d="M20.2618 9.32285C19.5435 9.2317 18.8252 9.20132 18.1068 9.26208C13.5982 9.64185 9.71619 13.151 8.87559 17.6019C8.66162 18.6956 8.63106 19.7894 8.76861 20.8527C8.82974 21.3844 8.93672 21.9161 9.08956 22.4326C9.15069 22.6756 9.22711 22.9187 9.31881 23.1466C9.31881 23.1618 9.34939 23.2073 9.36467 23.2529C9.36467 23.2681 9.37995 23.2833 9.39523 23.3137H9.37995L7.1027 24.2707L6.32324 24.5897L7.19441 25.0606L14.5916 29.0254L15.4628 29.4964L15.8143 28.2355L18.168 20.1843V20.1691L18.3514 19.5615L17.6789 19.8501L15.1877 20.8831C14.5152 19.1817 14.7903 17.2677 15.9366 15.8094C16.7466 14.8068 17.8929 14.1384 19.1614 13.9257C19.3142 13.9105 19.8492 13.8345 20.2007 13.8345L20.4758 13.0142L21.3928 10.2799V10.2647L21.6373 9.53552C21.0871 9.42918 20.2618 9.32285 20.2618 9.32285Z" fill="#20558A"/>
<path d="M18.7033 29.8298C19.4217 29.9209 20.14 29.9513 20.8583 29.8905C25.367 29.5259 29.2643 26.032 30.1202 21.5811C30.3341 20.4874 30.3647 19.3936 30.2424 18.3303C30.1813 17.7986 30.0743 17.2669 29.9368 16.7504C29.8756 16.5073 29.7992 16.2643 29.7075 16.0364C29.7075 16.0212 29.6769 15.9757 29.6616 15.9301C29.6616 15.9149 29.6464 15.8997 29.6311 15.8693H29.6464L31.9236 14.9275L32.7031 14.6085L31.8319 14.1376L24.45 10.1272L23.5788 9.65625L23.212 10.9171L20.843 18.9379V18.9531L20.6596 19.5607L21.3321 19.2873L23.8233 18.2543C24.4958 19.9557 24.2207 21.8697 23.0592 23.3129C22.2491 24.3155 21.1029 24.9839 19.8343 25.1813C19.6815 25.1965 19.1466 25.2725 18.795 25.2725L18.5199 26.0928L17.6029 28.8272V28.8424L17.3584 29.5715C17.878 29.7082 18.7033 29.8298 18.7033 29.8298Z" fill="#DA3B34"/>
</svg>
