<svg id="Layer_1" height="512" viewBox="0 0 512 512" width="512" xmlns="http://www.w3.org/2000/svg" data-name="Layer 1"><path d="m410.342 321.084c0 12.625-10.646 22.9-23.732 22.9s-23.732-10.272-23.732-22.9 10.646-22.9 23.732-22.9 23.732 10.275 23.732 22.9zm-194.583-165.484c-.073 0-.146 0-.218 0l-50.32 1.9a2.277 2.277 0 0 0 -1.877 1.112l-36.116 60.495a1.321 1.321 0 0 0 1.134 2h87.39a5.6 5.6 0 0 0 5.589-5.589v-54.326a5.59 5.59 0 0 0 -5.582-5.589zm89.862-.331h-59.621a5.356 5.356 0 0 0 -5.35 5.35v55.143a5.356 5.356 0 0 0 5.35 5.35h59.623a5.356 5.356 0 0 0 5.35-5.35v-55.14a5.356 5.356 0 0 0 -5.352-5.35zm-228.785 142.919c-13.086 0-23.732 10.271-23.732 22.9s10.646 22.9 23.732 22.9 23.732-10.272 23.732-22.9-10.646-22.9-23.732-22.9zm-64.336-39.675h-4.429v29.354h4.161zm484.841 16.111h6.585v-32.41h-6.585zm6.585-47.509v9.1h-9.585a3 3 0 0 0 -3 3v38.41a3 3 0 0 0 3 3h9.585v4.066h-22.17a3 3 0 0 0 -3 3v33.554l-30 4.988c.148-1.712.222-3.433.222-5.149 0-33.58-27.982-60.9-62.377-60.9s-62.375 27.319-62.375 60.9a59.172 59.172 0 0 0 .5 7.592h-186.014a59.1 59.1 0 0 0 .5-7.589c0-33.58-27.982-60.9-62.377-60.9-30.533 0-56.394 21.532-61.467 50.6l-7.3-1.486v-15.434h7.134a3 3 0 0 0 3-2.972l.326-35.354a3 3 0 0 0 -3-3.028h-7.1c1.388-6.014 6.843-11.136 14.231-13l75.525-14.838a19.259 19.259 0 0 0 13.031-9.381c10.938-19.215 30.257-48.69 38.055-60.471a21.346 21.346 0 0 1 16.78-9.5l65.174-2.688 85.959-.437h.038a7.32 7.32 0 0 1 7.319 7.32v66.34a11.275 11.275 0 0 0 11.26 11.257zm-276.585-65.923a11.59 11.59 0 0 0 -12.027-11.581l-50.32 1.9a8.257 8.257 0 0 0 -6.8 4.033l-36.115 60.5a7.32 7.32 0 0 0 6.285 11.073h87.39a11.6 11.6 0 0 0 11.589-11.589zm89.63-.57a11.363 11.363 0 0 0 -11.35-11.35h-59.621a11.363 11.363 0 0 0 -11.35 11.35v55.143a11.363 11.363 0 0 0 11.35 11.35h59.623a11.363 11.363 0 0 0 11.35-11.35zm167.788 159.854 12.533-1.239a7.336 7.336 0 0 0 6.637-7.325v-21.221h-19.17zm-47.95.608c0 26.867-22.519 48.724-50.2 48.724s-50.2-21.857-50.2-48.724 22.518-48.723 50.2-48.723 50.2 21.857 50.2 48.723zm-20.467 0c0-15.933-13.338-28.9-29.732-28.9s-29.732 12.963-29.732 28.9 13.338 28.9 29.732 28.9 29.732-12.966 29.732-28.9zm-289.307 0c0 26.867-22.519 48.724-50.2 48.724s-50.2-21.857-50.2-48.724 22.519-48.723 50.2-48.723 50.2 21.857 50.2 48.723zm-20.467 0c0-15.933-13.338-28.9-29.732-28.9s-29.736 12.967-29.736 28.9 13.338 28.9 29.732 28.9 29.736-12.966 29.736-28.9z"/></svg>