<svg id="Layer_1" height="512" viewBox="0 0 512 512" width="512" xmlns="http://www.w3.org/2000/svg" data-name="Layer 1"><path d="m10.237 279.357h-.037l.024-7.524a12.758 12.758 0 0 1 .25-1.261c10.01.047 15.827 3.073 16.153 4.392-.327 1.329-6.236 4.393-16.39 4.393zm491.7 33.141-26.921 4.25-.043 16.013v.154l26.974-4.707zm-214.593-91.452h96.214v-61.4h-96.214zm191.27-61.4h-78.914v61.05l64.26-7.151a20.818 20.818 0 0 0 18.364-23.185zm-329.022 53.062a5.109 5.109 0 0 0 3.956 8.338h112.141a5.492 5.492 0 0 0 5.486-5.486v-55.838c-31.845.926-54.392 5.077-72.8 13.369-17.705 7.972-33.205 20.56-48.783 39.617zm352.341 93.716-27.033 4.268a55.8 55.8 0 0 0 -111.5 3.492c0 2.186.049 13.74.073 19.314h-219.244c.067-5.595.2-17.1.2-19.314a55.81 55.81 0 1 0 -111.62 0c0 2.1.026 12.314.041 17.774l-7.615-1.075v-40.7a3 3 0 0 0 -3-3h-12.063l.007-1.823h.058c10.785 0 22.392-3.252 22.392-10.393 0-6.487-9.582-9.765-19.423-10.31a36.052 36.052 0 0 1 13.055-11.279c33.283-17.633 90.683-26.654 91.258-26.743.088-.014.176-.031.263-.053a29.738 29.738 0 0 0 16.658-11.112c37.774-50.738 73.195-66.207 151.6-66.207h193.99a12.784 12.784 0 0 1 12.613 10.974c5.766 41.5 9.224 67.6 9.25 69.839zm-224.758-149.78a3 3 0 0 0 -.9-2.145 3.047 3.047 0 0 0 -2.164-.854c-34.317.763-58.436 5.074-78.2 13.976-18.581 8.367-34.775 21.487-50.961 41.289a11.109 11.109 0 0 0 8.6 18.136h112.139a11.5 11.5 0 0 0 11.486-11.486zm112.383 0a3 3 0 0 0 -3-3h-102.214a3 3 0 0 0 -3 3v67.4a3 3 0 0 0 3 3h102.214a3 3 0 0 0 3-3zm98.723 32.994-4.03-33.354a3 3 0 0 0 -2.978-2.64h-84.573a3 3 0 0 0 -3 3v67.4a3 3 0 0 0 3 3 2.865 2.865 0 0 0 .332-.018l67.593-7.522a26.818 26.818 0 0 0 23.656-29.868zm-478.226 133.474a6.478 6.478 0 0 0 5.552 6.412l3.63.513v-36.858h-9.084zm78.166-35.49a26.561 26.561 0 1 0 26.562 26.561 26.591 26.591 0 0 0 -26.562-26.561zm330.99 0a26.561 26.561 0 1 0 26.562 26.561 26.591 26.591 0 0 0 -26.562-26.561zm48.557 26.561a48.557 48.557 0 1 1 -48.557-48.557 48.611 48.611 0 0 1 48.557 48.557zm-12 0a36.557 36.557 0 1 0 -36.557 36.557 36.6 36.6 0 0 0 36.557-36.557zm-318.99 0a48.557 48.557 0 1 1 -48.557-48.557 48.611 48.611 0 0 1 48.557 48.557zm-12 0a36.557 36.557 0 1 0 -36.557 36.557 36.6 36.6 0 0 0 36.557-36.557z"/></svg>