<svg width="40" height="39" viewBox="0 0 40 39" fill="none" xmlns="http://www.w3.org/2000/svg">
<ellipse cx="19.76" cy="19.5" rx="19.76" ry="19.5" fill="#20558A"/>
<path d="M27.802 19.8417L20.4436 12.4833C20.1353 12.175 19.7103 12 19.2686 12H13.2936C12.377 12 11.627 12.75 11.627 13.6667V19.6417C11.627 20.0833 11.802 20.5083 12.1186 20.8167L19.477 28.175C20.127 28.825 21.1853 28.825 21.8353 28.175L27.8103 22.2C28.4603 21.55 28.4603 20.5 27.802 19.8417ZM15.377 17C14.6853 17 14.127 16.4417 14.127 15.75C14.127 15.0583 14.6853 14.5 15.377 14.5C16.0686 14.5 16.627 15.0583 16.627 15.75C16.627 16.4417 16.0686 17 15.377 17Z" fill="white"/>
</svg>
